<svg xmlns="http://www.w3.org/2000/svg" viewBox="0 0 1440 320">
  <path fill="#ffe4c4" fill-opacity="1" d="M0,192L16,197.3C32,203,64,213,96,224C128,235,160,245,192,240C224,235,256,213,288,197.3C320,181,352,171,384,154.7C416,139,448,117,480,117.3C512,117,544,139,576,149.3C608,160,640,160,672,144C704,128,736,96,768,74.7C800,53,832,43,864,64C896,85,928,139,960,181.3C992,224,1024,256,1056,229.3C1088,203,1120,117,1152,106.7C1184,96,1216,160,1248,192C1280,224,1312,224,1344,202.7C1376,181,1408,139,1424,117.3L1440,96L1440,0L1424,0C1408,0,1376,0,1344,0C1312,0,1280,0,1248,0C1216,0,1184,0,1152,0C1120,0,1088,0,1056,0C1024,0,992,0,960,0C928,0,896,0,864,0C832,0,800,0,768,0C736,0,704,0,672,0C640,0,608,0,576,0C544,0,512,0,480,0C448,0,416,0,384,0C352,0,320,0,288,0C256,0,224,0,192,0C160,0,128,0,96,0C64,0,32,0,16,0L0,0Z"></path>
</svg>